<svg xmlns="http://www.w3.org/2000/svg" version="1.1" xmlns:xlink="http://www.w3.org/1999/xlink" xmlns:svgjs="http://svgjs.dev/svgjs" width="2000" height="3383" viewBox="0 0 2000 3383"><g transform="matrix(1,0,0,1,-2.338126435803815,1.369635627530215)"><svg viewBox="0 0 146 247" data-background-color="#ffffff" preserveAspectRatio="xMidYMid meet" height="3383" width="2000" xmlns="http://www.w3.org/2000/svg" xmlns:xlink="http://www.w3.org/1999/xlink"><g id="tight-bounds" transform="matrix(1,0,0,1,0.170683229813676,-0.09999999999999432)"><svg viewBox="0 0 145.65863354037265 247.2" height="247.2" width="145.65863354037265"><g><svg viewBox="0 0 145.65863354037268 247.20000000000002" height="247.2" width="145.65863354037265"><g><svg viewBox="0 0 145.65863354037268 247.20000000000002" height="247.20000000000002" width="145.65863354037268"><g id="textblocktransform"><svg viewBox="0 0 145.65863354037268 247.20000000000002" height="247.20000000000002" width="145.65863354037268" id="textblock"><g><svg viewBox="0 0 145.65863354037268 247.20000000000002" height="247.20000000000002" width="145.65863354037268"><g transform="matrix(1,0,0,1,0,0)"><svg width="145.65863354037268" viewBox="23.429999999999996 -20.4 82.56947367337197 111.15" height="247.20000000000002" data-palette-color="#e34504"><svg></svg><svg></svg><svg></svg><g class="wordmark-text-0" data-fill-palette-color="primary" id="text-0"><path d="M46.26 0.25v0c-1.433 0-2.417-0.377-2.95-1.13-0.533-0.747-0.8-1.753-0.8-3.02v0c0-1.4 0.433-3.067 1.3-5v0c0.333-0.767 0.683-1.46 1.05-2.08 0.367-0.613 0.75-1.187 1.15-1.72v0c-0.133 0.033-0.25 0.05-0.35 0.05-0.1 0-0.2 0-0.3 0v0c-0.8 0-1.467-0.567-2-1.7v0l-3.7 4.8c-1.967 2.567-3.167 3.85-3.6 3.85v0c-0.167 0-0.25-0.067-0.25-0.2v0c0-0.167 0.083-0.383 0.25-0.65v0c0.1-0.2 0.3-0.467 0.6-0.8v0c1.267-1.467 2.433-2.917 3.5-4.35 1.067-1.433 1.95-2.833 2.65-4.2v0c0.767-2.9 1.733-4.35 2.9-4.35v0c0.767 0 1.15 0.35 1.15 1.05v0c0 0.633-0.417 1.467-1.25 2.5v0c-0.8 1.033-1.2 1.567-1.2 1.6v0c0 0.7 0.517 1.05 1.55 1.05v0c0.6 0 1.267-0.217 2-0.65v0l1.3-0.8c0.067-0.033 0.167-0.05 0.3-0.05v0c0.4 0 0.75 0.167 1.05 0.5 0.3 0.333 0.4 0.633 0.3 0.9v0l-3.45 4.35c-2.133 2.733-3.2 4.933-3.2 6.6v0c0 1.5 0.733 2.25 2.2 2.25v0c1 0 2.077-0.3 3.23-0.9 1.147-0.6 2.263-1.343 3.35-2.23 1.08-0.88 1.987-1.737 2.72-2.57v0l1.2-1.4c0.067-0.067 0.15-0.15 0.25-0.25 0.1-0.1 0.183-0.15 0.25-0.15v0c0.233 0 0.35 0.117 0.35 0.35v0c0 0.067-0.033 0.183-0.1 0.35-0.067 0.167-0.183 0.35-0.35 0.55v0l-1.6 1.8c-0.767 0.867-1.707 1.74-2.82 2.62-1.12 0.887-2.27 1.613-3.45 2.18-1.187 0.567-2.263 0.85-3.23 0.85zM66.81-17.2v0c-0.567 0-1.057-0.183-1.47-0.55-0.42-0.367-0.63-0.783-0.63-1.25v0c0-0.933 0.633-1.4 1.9-1.4v0c0.467 0 0.933 0.157 1.4 0.47 0.467 0.32 0.7 0.713 0.7 1.18v0c0 0.4-0.217 0.757-0.65 1.07-0.433 0.32-0.85 0.48-1.25 0.48zM57.56 0.55v0c-0.733 0-1.34-0.243-1.82-0.73-0.487-0.48-0.73-1.337-0.73-2.57v0c0-0.7 0.16-1.51 0.48-2.43 0.313-0.913 0.713-1.837 1.2-2.77 0.48-0.933 0.953-1.767 1.42-2.5v0c1.867-3.033 3.4-4.567 4.6-4.6v0c0.3 0 0.667 0.123 1.1 0.37 0.433 0.253 0.65 0.53 0.65 0.83v0c0 0-1.267 1.633-3.8 4.9v0c-2.5 3.233-3.75 5.533-3.75 6.9v0c0 1.067 0.417 1.6 1.25 1.6v0c0.533 0 1.227-0.227 2.08-0.68 0.847-0.447 1.737-1.02 2.67-1.72 0.933-0.7 1.827-1.45 2.68-2.25 0.847-0.8 1.537-1.533 2.07-2.2v0c0.333-0.433 0.627-0.733 0.88-0.9 0.247-0.167 0.403-0.25 0.47-0.25v0c0.133 0 0.2 0.1 0.2 0.3v0c0 0.167-0.19 0.5-0.57 1-0.387 0.5-0.913 1.083-1.58 1.75v0c-0.8 0.8-1.683 1.667-2.65 2.6-0.967 0.933-2.017 1.723-3.15 2.37-1.133 0.653-2.367 0.98-3.7 0.98zM79.81 0.1v0c-0.9 0-1.533-0.26-1.9-0.78-0.367-0.513-0.55-1.153-0.55-1.92v0c0-1.933 0.667-4 2-6.2v0l3.2-5.2c-2.267 1.667-4.517 3.75-6.75 6.25v0c-0.6 0.667-1.273 1.45-2.02 2.35-0.753 0.9-1.58 1.933-2.48 3.1v0c-1.2 1.567-1.917 2.35-2.15 2.35v0c-0.467 0-0.85-0.21-1.15-0.63-0.3-0.413-0.45-0.787-0.45-1.12v0c0-0.267 0.083-0.76 0.25-1.48 0.167-0.713 0.367-1.337 0.6-1.87v0c0.233-0.567 0.477-1.127 0.73-1.68 0.247-0.547 0.487-1.087 0.72-1.62v0l-3 3.15c-0.067 0.067-0.267 0.267-0.6 0.6-0.333 0.333-0.6 0.5-0.8 0.5v0c-0.167 0-0.25-0.117-0.25-0.35v0c0-0.067 0.027-0.16 0.08-0.28 0.047-0.113 0.153-0.253 0.32-0.42v0c0.5-0.5 1.017-1.033 1.55-1.6 0.533-0.567 1.083-1.217 1.65-1.95v0c0.3-0.367 0.75-0.927 1.35-1.68 0.6-0.747 1.26-1.553 1.98-2.42 0.713-0.867 1.387-1.667 2.02-2.4v0c0.167-0.233 0.35-0.393 0.55-0.48 0.2-0.08 0.333-0.12 0.4-0.12v0c0.9 0 1.35 0.35 1.35 1.05v0c0 0.2-0.05 0.4-0.15 0.6v0c-3 4.133-4.8 7.283-5.4 9.45v0c3.867-3.867 6.977-6.777 9.33-8.73 2.347-1.947 4.02-2.92 5.02-2.92v0c0.533 0 0.943 0.083 1.23 0.25 0.28 0.167 0.42 0.483 0.42 0.95v0c0 0.167-0.017 0.3-0.05 0.4v0c-0.1 0.233-0.783 1.167-2.05 2.8v0c-0.767 0.933-1.44 1.783-2.02 2.55-0.587 0.767-1.063 1.433-1.43 2v0c-0.6 0.933-1.05 1.807-1.35 2.62-0.3 0.82-0.45 1.513-0.45 2.08v0c0 0.233 0.033 0.517 0.1 0.85 0.067 0.333 0.267 0.5 0.6 0.5v0c0.767 0 1.967-0.667 3.6-2v0c0.767-0.667 1.483-1.343 2.15-2.03 0.667-0.68 1.3-1.353 1.9-2.02v0c0.133-0.133 0.35-0.393 0.65-0.78 0.3-0.38 0.483-0.57 0.55-0.57v0c0.133 0 0.2 0.133 0.2 0.4v0c0 0.133-0.073 0.357-0.22 0.67-0.153 0.32-0.313 0.563-0.48 0.73v0c-0.367 0.433-0.907 1.033-1.62 1.8-0.72 0.767-1.52 1.55-2.4 2.35-0.887 0.8-1.747 1.483-2.58 2.05-0.833 0.567-1.567 0.85-2.2 0.85zM86.66 10.25v0c-1 0-1.85-0.417-2.55-1.25-0.7-0.833-1.067-1.733-1.1-2.7v0c0.1-0.4 0.25-0.6 0.45-0.6v0c0.2 0 0.317 0.26 0.35 0.78 0.033 0.513 0.3 1.02 0.8 1.52v0c0.5 0.5 0.983 0.75 1.45 0.75v0c1.933 0 3.967-1.25 6.1-3.75v0c0.767-0.9 1.56-1.957 2.38-3.17 0.813-1.22 1.603-2.597 2.37-4.13v0l2.5-4.95-3.75 3.8c-1.167 1.167-2.173 2.033-3.02 2.6-0.853 0.567-1.513 0.85-1.98 0.85v0c-0.8 0-1.6-0.293-2.4-0.88-0.8-0.58-1.25-1.253-1.35-2.02v0c-0.333-2.567 1.283-5.617 4.85-9.15v0c3.567-3.5 6.75-5.25 9.55-5.25v0c0.767 0 1.367 0.183 1.8 0.55v0c0.233 0.2 0.41 0.5 0.53 0.9 0.113 0.4 0.203 0.6 0.27 0.6v0c0.133 0 0.25-0.027 0.35-0.08 0.1-0.047 0.217-0.07 0.35-0.07v0c0.433 0 0.793 0.15 1.08 0.45 0.28 0.3 0.37 0.6 0.27 0.9v0c-0.033 0.3-0.517 1.2-1.45 2.7v0c-0.6 1-1.283 2.207-2.05 3.62-0.767 1.42-1.573 2.887-2.42 4.4-0.853 1.52-1.68 2.94-2.48 4.26-0.8 1.313-1.517 2.387-2.15 3.22v0c-3.067 4.067-5.983 6.1-8.75 6.1zM90.21-1.15v0c1.933 0 4.567-2.117 7.9-6.35v0l5.3-7.3c-0.2-0.467-0.617-0.7-1.25-0.7v0c-2.067 0-4.833 1.633-8.3 4.9v0c-3.6 3.4-5.217 6.15-4.85 8.25v0c0.167 0.8 0.567 1.2 1.2 1.2z" fill="#e34504" fill-rule="nonzero" stroke="none" stroke-width="1" stroke-linecap="butt" stroke-linejoin="miter" stroke-miterlimit="10" stroke-dasharray="" stroke-dashoffset="0" font-family="none" font-weight="none" font-size="none" text-anchor="none" style="mix-blend-mode: normal" data-fill-palette-color="primary" opacity="1"></path><path d="M56.63 40.35h-0.8c-0.833 0-1.483-0.39-1.95-1.17-0.467-0.787-0.7-1.547-0.7-2.28v0c0-2 1.45-4.8 4.35-8.4v0c2.933-3.633 5.3-5.45 7.1-5.45v0c1.7 0 2.55 0.9 2.55 2.7v0c0 0.267-0.023 0.55-0.07 0.85-0.053 0.3-0.113 0.617-0.18 0.95v0c0.067 0.1 0.233 0.15 0.5 0.15v0c0.9 0 1.967-0.317 3.2-0.95v0c-0.033 0.567-1.35 1.383-3.95 2.45v0c0.367 1.1-0.733 3.2-3.3 6.3v0c-2.633 3.233-4.883 4.85-6.75 4.85zM56.73 38.85v0c1.433 0 3.267-1.317 5.5-3.95v0c2.167-2.567 3.25-4.417 3.25-5.55v0c-0.533-0.3-1.2-1.067-2-2.3v0c-1.133 0-2.767 1.367-4.9 4.1v0c-2.1 2.667-3.117 4.717-3.05 6.15v0c0.033 1.033 0.433 1.55 1.2 1.55zM59.23 50.5v0c-1 0-1.85-0.417-2.55-1.25-0.7-0.833-1.067-1.733-1.1-2.7v0c0.1-0.4 0.25-0.6 0.45-0.6v0c0.2 0 0.317 0.26 0.35 0.78 0.033 0.513 0.3 1.02 0.8 1.52v0c0.5 0.5 1 0.75 1.5 0.75v0c2.833 0 5.417-1.75 7.75-5.25v0c0.633-0.933 1.417-2.293 2.35-4.08 0.933-1.78 1.967-4.02 3.1-6.72v0l2.7-6.5c-3.333-0.033-5-0.433-5-1.2v0c0-0.367 0.167-0.66 0.5-0.88 0.333-0.213 0.6-0.32 0.8-0.32v0 0 0 0c0.033 0 0.45 0.007 1.25 0.02 0.8 0.02 1.95 0.047 3.45 0.08v0c3.267-7.267 6.267-10.9 9-10.9v0c1.067 0 2.117 0.5 3.15 1.5v0c0.267 0.267 0.4 0.617 0.4 1.05v0c0 1.033-0.3 1.55-0.9 1.55v0c-0.167 0-0.333-0.133-0.5-0.4v0c-0.133-0.233-0.35-0.427-0.65-0.58-0.3-0.147-0.583-0.22-0.85-0.22v0c-1 0-1.873 0.373-2.62 1.12-0.753 0.753-1.453 1.73-2.1 2.93-0.653 1.2-1.347 2.517-2.08 3.95v0h0.6c3.633 0 6.05-0.05 7.25-0.15v0c0.133 0.033 0.2 0.1 0.2 0.2v0c0 0.267-1.183 0.633-3.55 1.1v0c-0.933 0.133-1.85 0.283-2.75 0.45-0.9 0.167-1.817 0.333-2.75 0.5v0c-0.433 0.933-0.967 2.04-1.6 3.32-0.633 1.287-1.35 2.713-2.15 4.28v0c-1.567 2.933-2.85 5.267-3.85 7-1 1.733-1.7 2.883-2.1 3.45v0c-2.9 4.133-5.733 6.2-8.5 6.2z" fill="#e34504" fill-rule="nonzero" stroke="none" stroke-width="1" stroke-linecap="butt" stroke-linejoin="miter" stroke-miterlimit="10" stroke-dasharray="" stroke-dashoffset="0" font-family="none" font-weight="none" font-size="none" text-anchor="none" style="mix-blend-mode: normal" data-fill-palette-color="primary" opacity="1"></path><path d="M27.08 90.75v0c-1 0-1.85-0.417-2.55-1.25-0.7-0.833-1.067-1.733-1.1-2.7v0c0.1-0.4 0.25-0.6 0.45-0.6v0c0.2 0 0.317 0.26 0.35 0.78 0.033 0.513 0.3 1.02 0.8 1.52v0c0.5 0.5 1 0.75 1.5 0.75v0c2.833 0 5.417-1.75 7.75-5.25v0c0.633-0.933 1.417-2.293 2.35-4.08 0.933-1.78 1.967-4.02 3.1-6.72v0l2.7-6.5c-3.333-0.033-5-0.433-5-1.2v0c0-0.367 0.167-0.66 0.5-0.88 0.333-0.213 0.6-0.32 0.8-0.32v0 0 0 0c0.033 0 0.45 0.007 1.25 0.02 0.8 0.02 1.95 0.047 3.45 0.08v0c3.267-7.267 6.267-10.9 9-10.9v0c1.067 0 2.117 0.5 3.15 1.5v0c0.267 0.267 0.4 0.617 0.4 1.05v0c0 1.033-0.3 1.55-0.9 1.55v0c-0.167 0-0.333-0.133-0.5-0.4v0c-0.133-0.233-0.35-0.427-0.65-0.58-0.3-0.147-0.583-0.22-0.85-0.22v0c-1 0-1.873 0.373-2.62 1.12-0.753 0.753-1.453 1.73-2.1 2.93-0.653 1.2-1.347 2.517-2.08 3.95v0h0.6c3.633 0 6.05-0.05 7.25-0.15v0c0.133 0.033 0.2 0.1 0.2 0.2v0c0 0.267-1.183 0.633-3.55 1.1v0c-0.933 0.133-1.85 0.283-2.75 0.45-0.9 0.167-1.817 0.333-2.75 0.5v0c-0.433 0.933-0.967 2.04-1.6 3.32-0.633 1.287-1.35 2.713-2.15 4.28v0c-1.567 2.933-2.85 5.267-3.85 7-1 1.733-1.7 2.883-2.1 3.45v0c-2.9 4.133-5.733 6.2-8.5 6.2zM58.73 63.3v0c-0.567 0-1.057-0.183-1.47-0.55-0.42-0.367-0.63-0.783-0.63-1.25v0c0-0.933 0.633-1.4 1.9-1.4v0c0.467 0 0.933 0.157 1.4 0.47 0.467 0.32 0.7 0.713 0.7 1.18v0c0 0.4-0.217 0.757-0.65 1.07-0.433 0.32-0.85 0.48-1.25 0.48zM49.48 81.05v0c-0.733 0-1.34-0.243-1.82-0.73-0.487-0.48-0.73-1.337-0.73-2.57v0c0-0.7 0.16-1.51 0.48-2.43 0.313-0.913 0.713-1.837 1.2-2.77 0.48-0.933 0.953-1.767 1.42-2.5v0c1.867-3.033 3.4-4.567 4.6-4.6v0c0.3 0 0.667 0.123 1.1 0.37 0.433 0.253 0.65 0.53 0.65 0.83v0c0 0-1.267 1.633-3.8 4.9v0c-2.5 3.233-3.75 5.533-3.75 6.9v0c0 1.067 0.417 1.6 1.25 1.6v0c0.533 0 1.227-0.227 2.08-0.68 0.847-0.447 1.737-1.02 2.67-1.72 0.933-0.7 1.827-1.45 2.68-2.25 0.847-0.8 1.537-1.533 2.07-2.2v0c0.333-0.433 0.627-0.733 0.88-0.9 0.247-0.167 0.403-0.25 0.47-0.25v0c0.133 0 0.2 0.1 0.2 0.3v0c0 0.167-0.19 0.5-0.57 1-0.387 0.5-0.913 1.083-1.58 1.75v0c-0.8 0.8-1.683 1.667-2.65 2.6-0.967 0.933-2.017 1.723-3.15 2.37-1.133 0.653-2.367 0.98-3.7 0.98zM69.18 80.75v0c-1.433 0-2.417-0.377-2.95-1.13-0.533-0.747-0.8-1.753-0.8-3.02v0c0-1.4 0.433-3.067 1.3-5v0c0.333-0.767 0.683-1.46 1.05-2.08 0.367-0.613 0.75-1.187 1.15-1.72v0c-0.133 0.033-0.25 0.05-0.35 0.05-0.1 0-0.2 0-0.3 0v0c-0.8 0-1.467-0.567-2-1.7v0l-3.7 4.8c-1.967 2.567-3.167 3.85-3.6 3.85v0c-0.167 0-0.25-0.067-0.25-0.2v0c0-0.167 0.083-0.383 0.25-0.65v0c0.1-0.2 0.3-0.467 0.6-0.8v0c1.267-1.467 2.433-2.917 3.5-4.35 1.067-1.433 1.95-2.833 2.65-4.2v0c0.767-2.9 1.733-4.35 2.9-4.35v0c0.767 0 1.15 0.35 1.15 1.05v0c0 0.633-0.417 1.467-1.25 2.5v0c-0.8 1.033-1.2 1.567-1.2 1.6v0c0 0.7 0.517 1.05 1.55 1.05v0c0.6 0 1.267-0.217 2-0.65v0l1.3-0.8c0.067-0.033 0.167-0.05 0.3-0.05v0c0.4 0 0.75 0.167 1.05 0.5 0.3 0.333 0.4 0.633 0.3 0.9v0l-3.45 4.35c-2.133 2.733-3.2 4.933-3.2 6.6v0c0 1.5 0.733 2.25 2.2 2.25v0c1 0 2.077-0.3 3.23-0.9 1.147-0.6 2.263-1.343 3.35-2.23 1.08-0.88 1.987-1.737 2.72-2.57v0l1.2-1.4c0.067-0.067 0.15-0.15 0.25-0.25 0.1-0.1 0.183-0.15 0.25-0.15v0c0.233 0 0.35 0.117 0.35 0.35v0c0 0.067-0.033 0.183-0.1 0.35-0.067 0.167-0.183 0.35-0.35 0.55v0l-1.6 1.8c-0.767 0.867-1.707 1.74-2.82 2.62-1.12 0.887-2.27 1.613-3.45 2.18-1.187 0.567-2.263 0.85-3.23 0.85zM81.23 81.15v0c-1.067 0-2.033-0.343-2.9-1.03-0.867-0.68-1.3-1.587-1.3-2.72v0c0-2.367 1.45-5.067 4.35-8.1v0c2.967-3.067 5.617-4.6 7.95-4.6v0c0.767 0 1.393 0.207 1.88 0.62 0.48 0.42 0.72 0.93 0.72 1.53v0c0 1.867-1.483 3.7-4.45 5.5v0c-2.633 1.6-4.85 2.4-6.65 2.4v0c-0.267 0-0.5-0.033-0.7-0.1v0c-0.5 0.9-0.75 1.85-0.75 2.85v0c0 1.733 0.817 2.6 2.45 2.6v0c1.667 0 3.817-1.117 6.45-3.35v0c2.033-1.633 3.767-3.367 5.2-5.2v0c0.3-0.4 0.567-0.6 0.8-0.6v0c0.2 0 0.3 0.1 0.3 0.3v0c0 0.2-0.133 0.483-0.4 0.85v0c-0.933 1.233-1.933 2.367-3 3.4-1.067 1.033-2.217 1.983-3.45 2.85v0c-2.567 1.867-4.733 2.8-6.5 2.8zM81.53 73.65v0c1.267 0 2.917-0.633 4.95-1.9v0c0.667-0.467 1.327-0.993 1.98-1.58 0.647-0.58 1.18-1.17 1.6-1.77 0.413-0.6 0.62-1.133 0.62-1.6v0c0-0.433-0.35-0.65-1.05-0.65v0c-1 0-2.4 0.75-4.2 2.25v0c-0.867 0.733-1.7 1.533-2.5 2.4-0.8 0.867-1.483 1.783-2.05 2.75v0c0.2 0.067 0.417 0.1 0.65 0.1z" fill="#e34504" fill-rule="nonzero" stroke="none" stroke-width="1" stroke-linecap="butt" stroke-linejoin="miter" stroke-miterlimit="10" stroke-dasharray="" stroke-dashoffset="0" font-family="none" font-weight="none" font-size="none" text-anchor="none" style="mix-blend-mode: normal" data-fill-palette-color="primary" opacity="1"></path></g></svg></g></svg></g></svg></g></svg></g></svg></g><defs></defs></svg><rect width="145.65863354037265" height="247.2" fill="none" stroke="none" visibility="hidden"></rect></g></svg></g></svg>